<svg width="23" height="18" viewBox="0 0 23 18" fill="none" xmlns="http://www.w3.org/2000/svg">
<path d="M5.18862 17.9997L11.8275 1.59703C12.2212 0.630167 13.159 0 14.2031 0H9.98958C8.358 0 6.88293 0.992111 6.27665 2.50174L0 18H5.18893L5.18862 17.9997Z" fill="white"/>
<path d="M17.378 12.0971C17.384 12.1119 17.3903 12.1264 17.3968 12.1409L19.7721 17.9996H22.3625L16.2922 3.02354L16.1081 2.56661L15.8343 1.89037C15.5652 1.22897 14.9216 0.792236 14.2027 0.792236C13.7404 0.792236 13.3151 0.972735 12.9961 1.2722L14.9997 6.22108L14.9984 6.22392L16.6958 10.4107L17.3783 12.0971H17.378Z" fill="white"/>
<path fill-rule="evenodd" clip-rule="evenodd" d="M12.8506 17.9995L11.5077 14.676C11.2939 14.1469 10.7803 13.8005 10.2096 13.8005H9.57625H7.76564L8.6986 11.4995L10.9246 11.4995H11.6299C12.3669 11.4995 13.0295 11.9489 13.3022 12.6336L14.1447 14.7495L15.4388 17.9995H12.8506Z" fill="white"/>
<path fill-rule="evenodd" clip-rule="evenodd" d="M16.3206 17.9995L11.1834 5.32768L12.4775 2.12698L18.911 17.9995H16.3206Z" fill="white"/>
</svg>
